:SAMPLES-PER-SECOND 30
:FRAME-RANGE 1-1700
:FULLY-SPECIFIED
:DEGREES
1010
root  31.0158 35.759 -44.4012 -16.004 8.99973 -5.28488
RightUpLeg  -13.4379 0.296148 9.60539
RightLeg  49.095 -6.21854 -7.9846
RightFoot  -19.4747 -0.136822 -0.0710443
RightToes  -1.16417e-010 0 -3.6325e-017
Spine  17.9441 -1.13048 -0.44314
Spine1  8.04125 -6.77177 9.05653
HEad  -6.72829 23.048 -12.9737
LeftShoulder1  3.25532 -6.26735 -27.2344
LeftArm  55.4241 -39.2277 -92.5601
LeftForeArm  9.22463 -8.16321 -17.611
LeftHand  -0.0422487 3.28924 1.40625
RightShoulder  15.1286 28.6903 40.4837
RightArm  37.2095 18.9108 19.4935
RightForeArm  17.7545 18.8074 7.57682
RightHand  1.03906 4.82436 11.4546
LeftUpLeg  -98.3937 24.3947 -70.7717
LeftLeg  121.53 1.63292 -2.97559
LeftFoot  20.1993 3.81147 -13.8888
LeftToes  1.03528e-008 1.55373e-010 -2.26046e-010
1011
root  31.2666 35.0394 -43.3794 -17.0834 13.0681 -6.58298
RightUpLeg  -13.0998 -2.51293 9.91479
RightLeg  53.9747 -6.54614 -9.97313
RightFoot  -24.0777 -0.00211664 1.44299
RightToes  -1.16417e-010 0 -3.6325e-017
Spine  18.3178 -1.3931 -1.05697
Spine1  7.97265 -7.37835 10.8421
HEad  -8.28823 23.5476 -11.8001
LeftShoulder1  3.28558 -6.18687 -27.8414
LeftArm  53.7722 -38.6092 -92.3662
LeftForeArm  10.8324 -7.7983 -17.6806
LeftHand  -0.0453196 3.07673 1.4907
RightShoulder  14.8451 27.4891 41.3804
RightArm  39.0982 18.1623 19.0456
RightForeArm  15.5703 20.461 6.08634
RightHand  1.11517 5.21509 11.8323
LeftUpLeg  -96.2991 24.8393 -69.7073
LeftLeg  122.527 1.2368 -2.29955
LeftFoot  17.8906 3.23508 -12.79
LeftToes  1.03528e-008 1.55373e-010 -2.26046e-010
1012
root  31.6638 34.8507 -42.4542 -17.2708 16.5592 -7.30482
RightUpLeg  -11.9655 -3.66497 9.78552
RightLeg  55.52 -7.54943 -12.0569
RightFoot  -26.6009 0.254168 3.24465
RightToes  -1.16417e-010 0 -3.6325e-017
Spine  17.9442 -1.72633 -1.35866
Spine1  7.05798 -7.80919 11.501
HEad  -9.44912 24.0358 -10.6329
LeftShoulder1  3.31114 -6.20867 -28.0339
LeftArm  49.7534 -39.0543 -92.5766
LeftForeArm  15.0722 -6.53853 -17.9281
LeftHand  -0.0346847 3.53927 1.01926
RightShoulder  14.8099 27.1963 41.7112
RightArm  39.9076 17.6033 18.8625
RightForeArm  15.8312 21.1578 5.45421
RightHand  1.13526 5.35432 11.8852
LeftUpLeg  -96.2286 24.7082 -70.6191
LeftLeg  122.576 1.48308 -2.65261
LeftFoot  17.5075 2.77946 -11.2012
LeftToes  1.03528e-008 1.55373e-010 -2.26046e-010
1013
root  32.2106 35.3042 -41.6596 -16.6387 19.191 -6.70026
RightUpLeg  -9.46578 -5.13018 7.7833
RightLeg  53.1521 -8.16067 -11.8883
RightFoot  -27.0856 0.440334 4.51353
RightToes  -1.16417e-010 0 -3.6325e-017
Spine  17.315 -1.69246 -1.96553
Spine1  6.21174 -7.87849 11.5921
HEad  -11.7247 23.5163 -10.8701
LeftShoulder1  3.32594 -6.2872 -27.9084
LeftArm  47.2611 -39.4975 -92.3486
LeftForeArm  15.4359 -5.8101 -18.1249
LeftHand  -0.0313234 3.58497 0.801747
RightShoulder  14.6931 27.3536 41.1191
RightArm  39.9548 17.6784 19.0438
RightForeArm  15.5819 22.109 4.75154
RightHand  1.14268 5.24686 12.0913
LeftUpLeg  -97.5676 24.3935 -73.0381
LeftLeg  121.501 1.78989 -3.21544
LeftFoot  18.4883 3.04577 -11.834
LeftToes  1.03528e-008 1.55373e-010 -2.26046e-010
1014
root  32.8809 36.2065 -40.7903 -15.9483 21.4282 -5.63745
RightUpLeg  -4.99679 -7.21144 4.84278
RightLeg  47.4107 -8.39711 -9.98725
RightFoot  -26.0487 0.508924 5.31127
RightToes  -1.16417e-010 0 -3.6325e-017
Spine  16.5366 -1.25326 -2.09999
Spine1  4.75185 -7.51979 11.171
HEad  -12.4293 21.9229 -11.615
LeftShoulder1  3.32113 -6.31152 -27.7714
LeftArm  45.87 -39.5644 -92.5953
LeftForeArm  16.2869 -5.3468 -18.2084
LeftHand  -0.0282798 3.79057 0.591042
RightShoulder  14.3014 27.1345 40.2389
RightArm  39.2974 17.5193 19.1652
RightForeArm  17.1503 23.8793 4.20864
RightHand  1.13001 5.22363 11.9824
LeftUpLeg  -99.2466 23.0099 -74.8203
LeftLeg  120.936 2.52117 -4.40246
LeftFoot  17.7542 3.57783 -14.1545
LeftToes  1.03528e-008 1.55373e-010 -2.26046e-010
1015
root  33.7203 37.3497 -40.0055 -14.6003 22.5502 -3.44676
RightUpLeg  -0.0313412 -8.26075 0.671488
RightLeg  39.8546 -7.89472 -7.28424
RightFoot  -23.2619 0.520043 6.48795
RightToes  -1.16417e-010 0 -3.6325e-017
Spine  15.8823 -0.341412 -2.26615
Spine1  2.70532 -6.48509 10.1339
HEad  -10.8714 20.8234 -12.1762
LeftShoulder1  3.26639 -6.26001 -27.3773
LeftArm  42.6468 -39.4526 -92.8861
LeftForeArm  18.7653 -4.33321 -18.3252
LeftHand  -0.0216709 3.77816 0.0844949
RightShoulder  14.158 27.3209 39.5217
RightArm  38.2629 16.8315 19.7283
RightForeArm  20.228 25.0148 4.28787
RightHand  1.11775 5.31703 11.7413
LeftUpLeg  -101.673 20.5774 -75.9446
LeftLeg  120.628 3.18254 -5.47539
LeftFoot  15.7706 4.34429 -18.2926
LeftToes  1.03528e-008 1.55373e-010 -2.26046e-010
1016
root  34.6407 38.485 -39.4113 -13.1862 22.2442 -0.510727
RightUpLeg  3.59616 -6.74985 -3.64626
RightLeg  34.0713 -7.07576 -5.37305
RightFoot  -18.2841 0.453012 9.49703
RightToes  -1.16417e-010 0 -3.6325e-017
Spine  16.625 0.851495 -2.03616
Spine1  -0.0278362 -4.87552 8.0927
HEad  -8.02717 20.4311 -12.2248
LeftShoulder1  3.17777 -6.20562 -26.627
LeftArm  40.0496 -39.3698 -92.8351
LeftForeArm  20.3448 -3.53179 -18.3957
LeftHand  -0.0127897 3.75518 -0.578137
RightShoulder  14.4971 27.9736 39.6189
RightArm  38.9534 16.4578 20.2654
RightForeArm  21.469 25.1037 4.24089
RightHand  1.13267 5.48137 11.7117
LeftUpLeg  -104.89 18.7266 -76.9734
LeftLeg  120.205 3.12237 -5.46666
LeftFoot  14.1789 5.00255 -22.235
LeftToes  1.03528e-008 1.55373e-010 -2.26046e-010
1017
root  35.566 39.4816 -38.9599 -11.9851 22.1344 1.49748
RightUpLeg  4.94954 -3.71712 -6.05373
RightLeg  31.4384 -8.56468 -5.84948
RightFoot  -11.6044 -0.0482014 13.4295
RightToes  -1.16417e-010 0 -3.6325e-017
Spine  17.0024 1.58697 -1.30392
Spine1  -1.22325 -3.86259 6.5037
HEad  -6.04524 20.0796 -12.927
LeftShoulder1  3.11831 -6.17859 -26.0842
LeftArm  42.2725 -39.8181 -93.1838
LeftForeArm  17.5416 -4.0815 -18.4256
LeftHand  -0.00662276 3.79818 -1.09255
RightShoulder  15.023 28.9999 39.7392
RightArm  39.0391 16.8216 20.4083
RightForeArm  21.4058 24.1518 4.04142
RightHand  1.14114 5.72035 11.5338
LeftUpLeg  -106.91 17.2565 -77.1863
LeftLeg  119.162 2.84087 -5.22347
LeftFoot  12.3281 5.10644 -24.4059
LeftToes  1.03528e-008 1.55373e-010 -2.26046e-010
1018
root  36.4077 40.3373 -38.5977 -11.1915 23.3387 1.60568
RightUpLeg  3.33759 -0.26553 -4.84329
RightLeg  33.5901 -14.6103 -10.4561
RightFoot  -2.89898 -0.653583 8.57122
RightToes  -1.16417e-010 0 -3.6325e-017
Spine  17.2227 1.51502 -0.760313
Spine1  -1.11184 -3.96863 6.83351
HEad  -5.54789 19.9387 -13.4961
LeftShoulder1  3.06921 -6.22077 -25.4128
LeftArm  44.8748 -40.7615 -94.4058
LeftForeArm  15.2587 -4.5581 -18.4332
LeftHand  -0.00730915 3.9438 -1.11678
RightShoulder  15.5206 30.0128 39.7858
RightArm  37.773 18.1684 20.1592
RightForeArm  21.7679 22.638 4.16052
RightHand  1.12063 6.20201 10.8257
LeftUpLeg  -107.157 16.5088 -76.5663
LeftLeg  117.434 2.45594 -4.90643
LeftFoot  11.0434 4.73408 -23.9597
LeftToes  1.03528e-008 1.55373e-010 -2.26046e-010
1019
root  37.05 40.6266 -38.3707 -9.82234 25.3899 1.53467
RightUpLeg  -0.812451 2.99562 -2.57903
RightLeg  36.7982 -12.0917 -9.80017
RightFoot  -0.211831 -0.344677 3.52079
RightToes  -1.16417e-010 0 -3.6325e-017
Spine  17.703 1.32103 -2.25991
Spine1  -0.464534 -4.57131 8.20486
HEad  -5.54948 19.9149 -12.6933
LeftShoulder1  3.05716 -6.42072 -24.6214
LeftArm  45.4686 -42.1086 -95.9685
LeftForeArm  14.7232 -4.33943 -18.5011
LeftHand  -0.0108739 4.12445 -0.99093
RightShoulder  15.7799 30.7324 39.5527
RightArm  33.9107 19.9655 19.924
RightForeArm  24.7835 20.854 5.19891
RightHand  1.12295 6.83791 10.2518
LeftUpLeg  -106.556 15.762 -77.8053
LeftLeg  115.1 1.69246 -3.90899
LeftFoot  9.86664 4.29611 -22.998
LeftToes  1.03528e-008 1.55373e-010 -2.26046e-010
